# torus_lr.obj
# low resolution torus
# normals: yes
# texture coordinates: no

v -0.000000 0.000000 -0.750000
v -0.375000 0.000000 -0.649519
v -0.000000 -0.176777 -0.823223
v -0.411612 -0.176777 -0.712932
v -0.000000 -0.250000 -1.000000
v -0.500000 -0.250000 -0.866025
v -0.000000 -0.176777 -1.176777
v -0.588388 -0.176777 -1.019118
v -0.000000 -0.000000 -1.250000
v -0.625000 -0.000000 -1.082532
v -0.000000 0.176777 -1.176777
v -0.588388 0.176777 -1.019118
v -0.000000 0.250000 -1.000000
v -0.500000 0.250000 -0.866025
v -0.000000 0.176777 -0.823223
v -0.411612 0.176777 -0.712932
v -0.649519 0.000000 -0.375000
v -0.712932 -0.176777 -0.411612
v -0.866025 -0.250000 -0.500000
v -1.019119 -0.176777 -0.588388
v -1.082532 -0.000000 -0.625000
v -1.019119 0.176777 -0.588388
v -0.866025 0.250000 -0.500000
v -0.712932 0.176777 -0.411612
v -0.750000 0.000000 0.000000
v -0.823223 -0.176777 0.000000
v -1.000000 -0.250000 0.000000
v -1.176777 -0.176777 0.000000
v -1.250000 -0.000000 0.000000
v -1.176777 0.176777 0.000000
v -1.000000 0.250000 0.000000
v -0.823223 0.176777 0.000000
v -0.649519 0.000000 0.375000
v -0.712932 -0.176777 0.411612
v -0.866025 -0.250000 0.500000
v -1.019119 -0.176777 0.588388
v -1.082532 -0.000000 0.625000
v -1.019119 0.176777 0.588388
v -0.866025 0.250000 0.500000
v -0.712932 0.176777 0.411612
v -0.375000 0.000000 0.649519
v -0.411612 -0.176777 0.712932
v -0.500000 -0.250000 0.866025
v -0.588389 -0.176777 1.019118
v -0.625000 -0.000000 1.082532
v -0.588389 0.176777 1.019118
v -0.500000 0.250000 0.866025
v -0.411612 0.176777 0.712932
v 0.000000 0.000000 0.750000
v 0.000000 -0.176777 0.823223
v 0.000000 -0.250000 1.000000
v 0.000000 -0.176777 1.176777
v 0.000000 -0.000000 1.250000
v 0.000000 0.176777 1.176777
v 0.000000 0.250000 1.000000
v 0.000000 0.176777 0.823223
v 0.375000 0.000000 0.649519
v 0.411612 -0.176777 0.712932
v 0.500000 -0.250000 0.866025
v 0.588388 -0.176777 1.019118
v 0.625000 -0.000000 1.082532
v 0.588388 0.176777 1.019118
v 0.500000 0.250000 0.866025
v 0.411612 0.176777 0.712932
v 0.649519 0.000000 0.375000
v 0.712932 -0.176777 0.411612
v 0.866025 -0.250000 0.500000
v 1.019118 -0.176777 0.588388
v 1.082532 -0.000000 0.625000
v 1.019118 0.176777 0.588388
v 0.866025 0.250000 0.500000
v 0.712932 0.176777 0.411612
v 0.750000 0.000000 0.000000
v 0.823223 -0.176777 0.000000
v 1.000000 -0.250000 0.000000
v 1.176777 -0.176777 0.000000
v 1.250000 -0.000000 0.000000
v 1.176777 0.176777 0.000000
v 1.000000 0.250000 0.000000
v 0.823223 0.176777 0.000000
v 0.649519 0.000000 -0.375000
v 0.712932 -0.176777 -0.411612
v 0.866025 -0.250000 -0.500000
v 1.019118 -0.176777 -0.588389
v 1.082532 -0.000000 -0.625000
v 1.019118 0.176777 -0.588389
v 0.866025 0.250000 -0.500000
v 0.712932 0.176777 -0.411612
v 0.375000 0.000000 -0.649519
v 0.411612 -0.176777 -0.712932
v 0.500000 -0.250000 -0.866025
v 0.588388 -0.176777 -1.019119
v 0.625000 -0.000000 -1.082532
v 0.588388 0.176777 -1.019119
v 0.500000 0.250000 -0.866025
v 0.411612 0.176777 -0.712932
vn -0.000000 0.000000 1.000000
vn 0.500000 0.000000 0.866025
vn 0.025378 -0.710458 0.703282
vn 0.373619 -0.710458 0.596371
vn 0.036971 -0.999316 0.000000
vn 0.032017 -0.999316 -0.018485
vn 0.025377 -0.710458 -0.703282
vn -0.329663 -0.710459 -0.621748
vn -0.000000 -0.000001 -1.000000
vn -0.500000 -0.000000 -0.866026
vn -0.025378 0.710459 -0.703281
vn -0.373618 0.710459 -0.596370
vn -0.036971 0.999316 0.000000
vn -0.032017 0.999316 0.018485
vn -0.025378 0.710458 0.703282
vn 0.329663 0.710458 0.621749
vn 0.866025 -0.000000 0.500000
vn 0.621749 -0.710458 0.329663
vn 0.018486 -0.999316 -0.032017
vn -0.596370 -0.710459 -0.373619
vn -0.866026 0.000001 -0.500000
vn -0.621749 0.710458 -0.329663
vn -0.018485 0.999316 0.032018
vn 0.596371 0.710458 0.373619
vn 1.000000 0.000000 0.000000
vn 0.703282 -0.710458 -0.025378
vn 0.000000 -0.999316 -0.036971
vn -0.703282 -0.710458 -0.025378
vn -1.000000 -0.000000 0.000000
vn -0.703282 0.710458 0.025378
vn 0.000000 0.999316 0.036971
vn 0.703282 0.710458 0.025378
vn 0.866025 0.000000 -0.500000
vn 0.596371 -0.710458 -0.373619
vn -0.018485 -0.999316 -0.032018
vn -0.621749 -0.710458 0.329663
vn -0.866026 -0.000000 0.500000
vn -0.596370 0.710459 0.373619
vn 0.018486 0.999316 0.032017
vn 0.621749 0.710458 -0.329663
vn 0.500000 -0.000000 -0.866025
vn 0.329663 -0.710458 -0.621749
vn -0.032017 -0.999316 -0.018486
vn -0.373619 -0.710459 0.596370
vn -0.500000 0.000000 0.866025
vn -0.329663 0.710459 0.621748
vn 0.032018 0.999316 0.018485
vn 0.373619 0.710458 -0.596371
vn 0.000000 0.000000 -1.000000
vn -0.025378 -0.710458 -0.703282
vn -0.036971 -0.999316 -0.000000
vn -0.025378 -0.710458 0.703282
vn 0.000000 -0.000000 1.000000
vn 0.025378 0.710459 0.703281
vn 0.036971 0.999316 -0.000000
vn 0.025378 0.710458 -0.703282
vn -0.500000 0.000000 -0.866025
vn -0.373619 -0.710458 -0.596371
vn -0.032017 -0.999316 0.018485
vn 0.329663 -0.710459 0.621748
vn 0.500000 -0.000001 0.866025
vn 0.373618 0.710459 0.596370
vn 0.032018 0.999316 -0.018485
vn -0.329663 0.710458 -0.621749
vn -0.866025 -0.000000 -0.500000
vn -0.621749 -0.710458 -0.329663
vn -0.018485 -0.999316 0.032018
vn 0.596370 -0.710460 0.373618
vn 0.866025 0.000001 0.500000
vn 0.621748 0.710459 0.329663
vn 0.018485 0.999316 -0.032017
vn -0.596371 0.710458 -0.373619
vn -1.000000 0.000000 0.000000
vn -0.703282 -0.710458 0.025378
vn -0.000000 -0.999316 0.036971
vn 0.703281 -0.710459 0.025378
vn 1.000000 0.000000 0.000000
vn 0.703282 0.710458 -0.025378
vn -0.000000 0.999316 -0.036971
vn -0.703282 0.710458 -0.025378
vn -0.866025 0.000000 0.500000
vn -0.596371 -0.710458 0.373619
vn 0.018485 -0.999316 0.032018
vn 0.621748 -0.710459 -0.329663
vn 0.866025 -0.000000 -0.500000
vn 0.596370 0.710459 -0.373619
vn -0.018486 0.999316 -0.032017
vn -0.621749 0.710458 0.329663
vn -0.500000 -0.000000 0.866025
vn -0.329663 -0.710458 0.621749
vn 0.032017 -0.999316 0.018486
vn 0.373619 -0.710459 -0.596370
vn 0.500000 0.000000 -0.866026
vn 0.329663 0.710458 -0.621749
vn -0.032018 0.999316 -0.018485
vn -0.373619 0.710458 0.596371
f 1//1 2//2 3//3
f 3//3 2//2 4//4
f 3//3 4//4 5//5
f 5//5 4//4 6//6
f 5//5 6//6 7//7
f 7//7 6//6 8//8
f 7//7 8//8 9//9
f 9//9 8//8 10//10
f 9//9 10//10 11//11
f 11//11 10//10 12//12
f 11//11 12//12 13//13
f 13//13 12//12 14//14
f 13//13 14//14 15//15
f 15//15 14//14 16//16
f 15//15 16//16 1//1
f 1//1 16//16 2//2
f 2//2 17//17 4//4
f 4//4 17//17 18//18
f 4//4 18//18 6//6
f 6//6 18//18 19//19
f 6//6 19//19 8//8
f 8//8 19//19 20//20
f 8//8 20//20 10//10
f 10//10 20//20 21//21
f 10//10 21//21 12//12
f 12//12 21//21 22//22
f 12//12 22//22 14//14
f 14//14 22//22 23//23
f 14//14 23//23 16//16
f 16//16 23//23 24//24
f 16//16 24//24 2//2
f 2//2 24//24 17//17
f 17//17 25//25 18//18
f 18//18 25//25 26//26
f 18//18 26//26 19//19
f 19//19 26//26 27//27
f 19//19 27//27 20//20
f 20//20 27//27 28//28
f 20//20 28//28 21//21
f 21//21 28//28 29//29
f 21//21 29//29 22//22
f 22//22 29//29 30//30
f 22//22 30//30 23//23
f 23//23 30//30 31//31
f 23//23 31//31 24//24
f 24//24 31//31 32//32
f 24//24 32//32 17//17
f 17//17 32//32 25//25
f 25//25 33//33 26//26
f 26//26 33//33 34//34
f 26//26 34//34 27//27
f 27//27 34//34 35//35
f 27//27 35//35 28//28
f 28//28 35//35 36//36
f 28//28 36//36 29//29
f 29//29 36//36 37//37
f 29//29 37//37 30//30
f 30//30 37//37 38//38
f 30//30 38//38 31//31
f 31//31 38//38 39//39
f 31//31 39//39 32//32
f 32//32 39//39 40//40
f 32//32 40//40 25//25
f 25//25 40//40 33//33
f 33//33 41//41 34//34
f 34//34 41//41 42//42
f 34//34 42//42 35//35
f 35//35 42//42 43//43
f 35//35 43//43 36//36
f 36//36 43//43 44//44
f 36//36 44//44 37//37
f 37//37 44//44 45//45
f 37//37 45//45 38//38
f 38//38 45//45 46//46
f 38//38 46//46 39//39
f 39//39 46//46 47//47
f 39//39 47//47 40//40
f 40//40 47//47 48//48
f 40//40 48//48 33//33
f 33//33 48//48 41//41
f 41//41 49//49 42//42
f 42//42 49//49 50//50
f 42//42 50//50 43//43
f 43//43 50//50 51//51
f 43//43 51//51 44//44
f 44//44 51//51 52//52
f 44//44 52//52 45//45
f 45//45 52//52 53//53
f 45//45 53//53 46//46
f 46//46 53//53 54//54
f 46//46 54//54 47//47
f 47//47 54//54 55//55
f 47//47 55//55 48//48
f 48//48 55//55 56//56
f 48//48 56//56 41//41
f 41//41 56//56 49//49
f 49//49 57//57 50//50
f 50//50 57//57 58//58
f 50//50 58//58 51//51
f 51//51 58//58 59//59
f 51//51 59//59 52//52
f 52//52 59//59 60//60
f 52//52 60//60 53//53
f 53//53 60//60 61//61
f 53//53 61//61 54//54
f 54//54 61//61 62//62
f 54//54 62//62 55//55
f 55//55 62//62 63//63
f 55//55 63//63 56//56
f 56//56 63//63 64//64
f 56//56 64//64 49//49
f 49//49 64//64 57//57
f 57//57 65//65 58//58
f 58//58 65//65 66//66
f 58//58 66//66 59//59
f 59//59 66//66 67//67
f 59//59 67//67 60//60
f 60//60 67//67 68//68
f 60//60 68//68 61//61
f 61//61 68//68 69//69
f 61//61 69//69 62//62
f 62//62 69//69 70//70
f 62//62 70//70 63//63
f 63//63 70//70 71//71
f 63//63 71//71 64//64
f 64//64 71//71 72//72
f 64//64 72//72 57//57
f 57//57 72//72 65//65
f 65//65 73//73 66//66
f 66//66 73//73 74//74
f 66//66 74//74 67//67
f 67//67 74//74 75//75
f 67//67 75//75 68//68
f 68//68 75//75 76//76
f 68//68 76//76 69//69
f 69//69 76//76 77//77
f 69//69 77//77 70//70
f 70//70 77//77 78//78
f 70//70 78//78 71//71
f 71//71 78//78 79//79
f 71//71 79//79 72//72
f 72//72 79//79 80//80
f 72//72 80//80 65//65
f 65//65 80//80 73//73
f 73//73 81//81 74//74
f 74//74 81//81 82//82
f 74//74 82//82 75//75
f 75//75 82//82 83//83
f 75//75 83//83 76//76
f 76//76 83//83 84//84
f 76//76 84//84 77//77
f 77//77 84//84 85//85
f 77//77 85//85 78//78
f 78//78 85//85 86//86
f 78//78 86//86 79//79
f 79//79 86//86 87//87
f 79//79 87//87 80//80
f 80//80 87//87 88//88
f 80//80 88//88 73//73
f 73//73 88//88 81//81
f 81//81 89//89 82//82
f 82//82 89//89 90//90
f 82//82 90//90 83//83
f 83//83 90//90 91//91
f 83//83 91//91 84//84
f 84//84 91//91 92//92
f 84//84 92//92 85//85
f 85//85 92//92 93//93
f 85//85 93//93 86//86
f 86//86 93//93 94//94
f 86//86 94//94 87//87
f 87//87 94//94 95//95
f 87//87 95//95 88//88
f 88//88 95//95 96//96
f 88//88 96//96 81//81
f 81//81 96//96 89//89
f 89//89 1//1 90//90
f 90//90 1//1 3//3
f 90//90 3//3 91//91
f 91//91 3//3 5//5
f 91//91 5//5 92//92
f 92//92 5//5 7//7
f 92//92 7//7 93//93
f 93//93 7//7 9//9
f 93//93 9//9 94//94
f 94//94 9//9 11//11
f 94//94 11//11 95//95
f 95//95 11//11 13//13
f 95//95 13//13 96//96
f 96//96 13//13 15//15
f 96//96 15//15 89//89
f 89//89 15//15 1//1
